<svg width="10" height="5" viewBox="0 0 10 5" fill="none" xmlns="http://www.w3.org/2000/svg">
<path d="M4.99999 4.92702C4.84422 4.92733 4.69326 4.87308 4.57332 4.77369L0.573324 1.44036C0.437179 1.3272 0.351563 1.16459 0.33531 0.988305C0.319057 0.812021 0.373498 0.636501 0.486657 0.500356C0.599816 0.364212 0.762424 0.278596 0.938708 0.262342C1.11499 0.246089 1.29051 0.30053 1.42666 0.413689L4.99999 3.40036L8.57332 0.520357C8.64152 0.464979 8.71998 0.423625 8.80421 0.39867C8.88843 0.373716 8.97676 0.365653 9.06411 0.374946C9.15146 0.384239 9.23612 0.410703 9.31321 0.452819C9.3903 0.494935 9.45831 0.551872 9.51332 0.620356C9.57438 0.688904 9.62062 0.769322 9.64915 0.856571C9.67767 0.94382 9.68788 1.03602 9.67911 1.1274C9.67035 1.21877 9.64281 1.30735 9.59823 1.38759C9.55364 1.46783 9.49296 1.53799 9.41999 1.59369L5.41999 4.81369C5.2966 4.89737 5.14872 4.93727 4.99999 4.92702Z" fill="white"/>
</svg>
