<svg width="20" height="20" viewBox="0 0 20 20" fill="none" xmlns="http://www.w3.org/2000/svg">
<g clip-path="url(#clip0_27_53)">
<path d="M14.6775 12.93C15.8879 11.2784 16.43 9.23062 16.1954 7.19644C15.9608 5.16226 14.9668 3.29168 13.4122 1.95892C11.8576 0.626155 9.85718 -0.070492 7.81104 0.00834944C5.7649 0.0871909 3.82397 0.935706 2.37658 2.38414C0.929182 3.83257 0.0820563 5.7741 0.00467902 7.8203C-0.0726983 9.86649 0.62538 11.8665 1.95925 13.4201C3.29313 14.9737 5.16442 15.9663 7.19877 16.1995C9.23311 16.4326 11.2805 15.8891 12.9312 14.6775H12.93C12.9675 14.7275 13.0075 14.775 13.0525 14.8213L17.865 19.6338C18.0994 19.8683 18.4173 20.0001 18.7489 20.0003C19.0805 20.0004 19.3986 19.8688 19.6331 19.6344C19.8677 19.4 19.9995 19.082 19.9996 18.7504C19.9997 18.4189 19.8681 18.1008 19.6337 17.8663L14.8212 13.0538C14.7766 13.0085 14.7285 12.9667 14.6775 12.9288V12.93ZM15 8.125C15 9.02784 14.8222 9.92184 14.4767 10.756C14.1312 11.5901 13.6248 12.348 12.9864 12.9864C12.3479 13.6248 11.5901 14.1312 10.7559 14.4767C9.92183 14.8222 9.02783 15 8.12499 15C7.22215 15 6.32816 14.8222 5.49404 14.4767C4.65993 14.1312 3.90204 13.6248 3.26363 12.9864C2.62523 12.348 2.11882 11.5901 1.77332 10.756C1.42782 9.92184 1.24999 9.02784 1.24999 8.125C1.24999 6.30164 1.97432 4.55296 3.26363 3.26364C4.55295 1.97433 6.30163 1.25 8.12499 1.25C9.94836 1.25 11.697 1.97433 12.9864 3.26364C14.2757 4.55296 15 6.30164 15 8.125Z" fill="#1B3C54"/>
</g>
<defs>
<clipPath id="clip0_27_53">
<rect width="20" height="20" fill="white"/>
</clipPath>
</defs>
</svg>
