<svg width="18" height="17" viewBox="0 0 18 17" fill="none" xmlns="http://www.w3.org/2000/svg">
<path d="M8.99166 0.000366211C4.39166 0.000366211 0.666656 3.7337 0.666656 8.3337C0.666656 12.9337 4.39166 16.667 8.99166 16.667C13.6 16.667 17.3333 12.9337 17.3333 8.3337C17.3333 3.7337 13.6 0.000366211 8.99166 0.000366211ZM14.7667 5.00037H12.3083C12.0475 3.96825 11.6613 2.97195 11.1583 2.0337C12.6784 2.55704 13.9593 3.61014 14.7667 5.00037ZM8.99999 1.70037C9.69166 2.70037 10.2333 3.8087 10.5917 5.00037H7.40833C7.76666 3.8087 8.30833 2.70037 8.99999 1.70037ZM2.54999 10.0004C2.41666 9.46704 2.33332 8.9087 2.33332 8.3337C2.33332 7.7587 2.41666 7.20037 2.54999 6.66704H5.36666C5.29999 7.21704 5.24999 7.76704 5.24999 8.3337C5.24999 8.90037 5.29999 9.45037 5.36666 10.0004H2.54999ZM3.23332 11.667H5.69166C5.95832 12.7087 6.34166 13.7087 6.84166 14.6337C5.31996 14.1132 4.03818 13.0594 3.23332 11.667ZM5.69166 5.00037H3.23332C4.03818 3.60802 5.31996 2.55417 6.84166 2.0337C6.33868 2.97195 5.95247 3.96825 5.69166 5.00037ZM8.99999 14.967C8.30833 13.967 7.76666 12.8587 7.40833 11.667H10.5917C10.2333 12.8587 9.69166 13.967 8.99999 14.967ZM10.95 10.0004H7.04999C6.97499 9.45037 6.91666 8.90037 6.91666 8.3337C6.91666 7.76704 6.97499 7.2087 7.04999 6.66704H10.95C11.025 7.2087 11.0833 7.76704 11.0833 8.3337C11.0833 8.90037 11.025 9.45037 10.95 10.0004ZM11.1583 14.6337C11.6583 13.7087 12.0417 12.7087 12.3083 11.667H14.7667C13.9593 13.0573 12.6784 14.1104 11.1583 14.6337ZM12.6333 10.0004C12.7 9.45037 12.75 8.90037 12.75 8.3337C12.75 7.76704 12.7 7.21704 12.6333 6.66704H15.45C15.5833 7.20037 15.6667 7.7587 15.6667 8.3337C15.6667 8.9087 15.5833 9.46704 15.45 10.0004H12.6333Z" fill="#1B3C54"/>
</svg>
